<?xml version="1.0" encoding="utf-8"?>
<!-- Generator: Adobe Illustrator 21.1.0, SVG Export Plug-In . SVG Version: 6.00 Build 0)  -->
<svg version="1.1" xmlns="http://www.w3.org/2000/svg" xmlns:xlink="http://www.w3.org/1999/xlink" x="0px" y="0px" viewBox="0 0 44 44" style="enable-background:new 0 0 44 44;" xml:space="preserve">
    <g id="drops">
    </g>
    <g id="cloud">
    </g>
    <g id="lightning">
    </g>
    <g id="hailstones">
    </g>
    <g id="rain">
    </g>
    <g id="sun">
    </g>
    <g id="snow">
    </g>
    <g id="snowflakes">
    </g>
    <g id="wind">
    </g>
    <g id="cloudy_x5F_night">
        <g>
            <path d="M43.5,16.1c-0.3-0.2-0.8-0.2-1.1,0c-3.3,2.4-7.8,2-10.7-0.9c-2.9-2.9-3.2-7.4-0.8-10.7c0.2-0.3,0.3-0.8,0-1.1
			c-0.2-0.3-0.6-0.5-1-0.5c-2.4,0.4-4.6,1.6-6.4,3.3c-2,2-3.3,4.7-3.5,7.6c0,0.6,0.4,1,0.9,1.1c0.6,0,1-0.4,1.1-0.9
			c0.2-2.4,1.2-4.6,2.9-6.3c0.9-0.9,1.9-1.6,3.1-2.1c-1.5,3.7-0.7,8,2.3,11c3,3,7.3,3.8,11,2.3c-0.5,1.1-1.2,2.2-2.1,3.1
			c-0.8,0.8-1.7,1.4-2.7,1.9c-0.5,0.2-0.7,0.8-0.5,1.3c0.2,0.4,0.5,0.6,0.9,0.6c0.1,0,0.3,0,0.4-0.1c1.2-0.6,2.3-1.4,3.2-2.3
			c1.7-1.7,2.9-3.9,3.3-6.4C44.1,16.7,43.9,16.3,43.5,16.1z" />
            <path d="M32.3,33.7c-0.4,0.4-0.4,1-0.1,1.4c0.2,0.2,0.5,0.3,0.7,0.3c0.2,0,0.5-0.1,0.7-0.3C35.1,33.9,36,32,36,30
			c0-3-1.9-5.6-4.7-6.6c-0.5-0.2-1.1,0.1-1.3,0.6c-0.2,0.5,0.1,1.1,0.6,1.3c2,0.7,3.3,2.6,3.3,4.7C34,31.4,33.4,32.8,32.3,33.7z" />
            <path d="M37.3,32.6c-0.4,0.4-0.5,1-0.1,1.4c0.5,0.5,0.7,1.3,0.7,2c0,1.7-1.3,3-3,3H7c-2.8,0-5-2.2-5-5s2.2-5,5-5
			c1.7,0,3.2,0.8,4.2,2.2c0.3,0.5,0.9,0.6,1.4,0.3c0.5-0.3,0.6-0.9,0.3-1.4C11.5,28.2,9.4,27,7,27c-3.9,0-7,3.1-7,7s3.1,7,7,7h28
			c2.8,0,5-2.2,5-5c0-1.2-0.4-2.4-1.2-3.3C38.4,32.3,37.8,32.2,37.3,32.6z" />
            <path d="M8.4,24.9c0.5,0.2,1.1,0,1.3-0.5c1.4-3.3,4.7-5.4,8.3-5.4c5,0,9,4,9,9c0,0.6,0.4,1,1,1s1-0.4,1-1c0-6.1-4.9-11-11-11
			c-4.4,0-8.3,2.6-10.1,6.6C7.7,24.1,7.9,24.7,8.4,24.9z" />
            <path d="M11.1,25.6c-0.2,0.5,0,1.1,0.5,1.3c0.1,0.1,0.3,0.1,0.4,0.1c0.4,0,0.8-0.2,0.9-0.6c0.9-2.1,2.9-3.4,5.1-3.4
			c0.6,0,1-0.4,1-1s-0.4-1-1-1C15,21,12.3,22.8,11.1,25.6z" />
        </g>
    </g>
    <g id="cloudy_x5F_day">
    </g>
    <g id="rain_x5F_sun">
    </g>
    <g id="day">
    </g>
    <g id="thermometer">
    </g>
    <g id="hailstones_x5F_sun">
    </g>
    <g id="mist">
    </g>
    <g id="star">
    </g>
    <g id="sunset">
    </g>
    <g id="night">
    </g>
    <g id="windsock">
    </g>
</svg>