<?xml version="1.0" encoding="iso-8859-1"?>
<!-- Generator: Adobe Illustrator 21.0.0, SVG Export Plug-In . SVG Version: 6.00 Build 0)  -->
<svg version="1.1" xmlns="http://www.w3.org/2000/svg" xmlns:xlink="http://www.w3.org/1999/xlink" x="0px" y="0px"
	 viewBox="0 0 44 44" style="enable-background:new 0 0 44 44;" xml:space="preserve">
<g id="planet">
</g>
<g id="telescope">
</g>
<g id="ufo">
</g>
<g id="alien">
</g>
<g id="rocket">
</g>
<g id="robot">
</g>
<g id="moon">
	<g>
		<circle cx="18" cy="18" r="1"/>
		<circle cx="7" cy="16" r="1"/>
		<circle cx="35" cy="22" r="1"/>
		<circle cx="23" cy="23" r="1"/>
		<circle cx="29.5" cy="25.5" r="1.5"/>
		<circle cx="25" cy="7" r="1"/>
		<path d="M11,31c2.757,0,5-2.243,5-5s-2.243-5-5-5s-5,2.243-5,5S8.243,31,11,31z M11,23c1.654,0,3,1.346,3,3s-1.346,3-3,3
			s-3-1.346-3-3S9.346,23,11,23z"/>
		<path d="M28,11c-1.654,0-3,1.346-3,3s1.346,3,3,3s3-1.346,3-3S29.654,11,28,11z M28,15c-0.551,0-1-0.449-1-1s0.449-1,1-1
			c0.552,0,1,0.449,1,1S28.552,15,28,15z"/>
		<path d="M19,38c2.206,0,4-1.794,4-4s-1.794-4-4-4s-4,1.794-4,4S16.794,38,19,38z M19,32c1.103,0,2,0.897,2,2s-0.897,2-2,2
			s-2-0.897-2-2S17.897,32,19,32z"/>
		<path d="M16,7c-1.654,0-3,1.346-3,3s1.346,3,3,3s3-1.346,3-3S17.654,7,16,7z M16,11c-0.551,0-1-0.449-1-1s0.449-1,1-1s1,0.449,1,1
			S16.551,11,16,11z"/>
		<path d="M22,0C9.869,0,0,9.869,0,22s9.869,22,22,22c3.631,0,7.192-0.893,10.369-2.592c2.776-1.488,5.273-3.644,7.205-6.212
			c0.19-0.252,0.25-0.58,0.16-0.884C38.975,31.733,36.671,30,34,30c-3.309,0-6,2.691-6,6c0,0.837,0.17,1.646,0.506,2.406
			c0.224,0.504,0.811,0.733,1.319,0.51c0.505-0.223,0.733-0.814,0.511-1.319C30.113,37.094,30,36.557,30,36c0-2.206,1.794-4,4-4
			c1.611,0,3.024,0.953,3.65,2.416c-1.711,2.154-3.874,3.969-6.247,5.239C28.523,41.191,25.293,42,22,42C10.972,42,2,33.028,2,22
			S10.972,2,22,2c11.028,0,20,8.972,20,20c0,2.64-0.506,5.203-1.503,7.619c-0.21,0.51,0.033,1.095,0.543,1.306
			s1.096-0.032,1.307-0.543C43.443,27.723,44,24.903,44,22C44,9.869,34.131,0,22,0z"/>
	</g>
</g>
<g id="solar_x5F_system">
</g>
<g id="astronaut_x5F_2">
</g>
<g id="astronaut_x5F_1">
</g>
<g id="rover">
</g>
<g id="star">
</g>
<g id="lander">
</g>
<g id="space_x5F_station">
</g>
<g id="Hubble">
</g>
<g id="satellite">
</g>
<g id="Earth">
</g>
<g id="meteorite">
</g>
<g id="Jupiter">
</g>
<g id="universe">
</g>
</svg>
