<?xml version="1.0" encoding="utf-8"?>
<!-- Generator: Adobe Illustrator 21.1.0, SVG Export Plug-In . SVG Version: 6.00 Build 0)  -->
<svg version="1.1" xmlns="http://www.w3.org/2000/svg" xmlns:xlink="http://www.w3.org/1999/xlink" x="0px" y="0px"
	 viewBox="0 0 44 44" style="enable-background:new 0 0 44 44;" xml:space="preserve">
<g id="drops">
</g>
<g id="cloud">
</g>
<g id="lightning">
</g>
<g id="hailstones">
</g>
<g id="rain">
</g>
<g id="sun">
</g>
<g id="snow">
</g>
<g id="snowflakes">
</g>
<g id="wind">
</g>
<g id="cloudy_x5F_night">
</g>
<g id="cloudy_x5F_day">
</g>
<g id="rain_x5F_sun">
</g>
<g id="day">
</g>
<g id="thermometer">
</g>
<g id="hailstones_x5F_sun">
</g>
<g id="mist">
</g>
<g id="star">
</g>
<g id="sunset">
</g>
<g id="night">
	<g>
		<path d="M36.2,38.3c-3.6-0.6-6.9-2.3-9.4-5c-0.2-0.3-0.5-0.5-0.8-0.8c-0.3-0.2-0.6-0.5-0.8-0.8c0.2-0.3,0.3-0.7,0.5-1.2
			c0.2-0.6,0.1-1.3-0.3-1.8c-0.3-0.5-0.9-0.9-1.6-1c-0.1,0-0.2-0.1-0.2-0.1c-0.1-0.2-0.3-0.4-0.4-0.6h2.4c1.4,0,2.5-1.1,2.5-2.5
			c0-0.6-0.2-1.2-0.6-1.6L23.9,19c-0.8-0.9-1-2-0.6-3.1c1.5-3.8,4.4-6.9,8.1-8.7c0.5-0.2,0.7-0.8,0.5-1.3c-0.2-0.5-0.8-0.7-1.3-0.5
			c-4.1,2-7.3,5.5-9,9.8c-0.1,0.3-0.2,0.7-0.3,1l-0.8,0.5c-1.2,0.7-2.4,0.9-3.6,0.5c-1.1-0.4-2-1.3-2.5-2.6
			c-0.2-0.5-0.8-0.8-1.3-0.6c-0.5,0.2-0.8,0.8-0.6,1.3c0.1,0.3,0.2,0.5,0.3,0.7l-1.1,1c-0.4,0.4-0.4,1,0,1.4
			c0.2,0.2,0.5,0.3,0.7,0.3c0.3,0,0.5-0.1,0.7-0.3l0.8-0.8c0.4,0.4,0.8,0.7,1.3,1l-0.4,1c-0.2,0.5,0.1,1.1,0.6,1.3
			c0.1,0,0.2,0.1,0.3,0.1c0.4,0,0.8-0.3,0.9-0.7l0.4-1c0.3,0,0.6,0.1,0.9,0.1c0.3,0,0.5,0,0.8-0.1l0.2,1.2c0.1,0.5,0.5,0.9,1,0.9
			c0,0,0.1,0,0.1,0c0.5-0.1,0.9-0.6,0.9-1.1l-0.2-1.5c0.2-0.1,0.4-0.2,0.6-0.3c0.2,0.7,0.6,1.3,1,1.8l3.4,3.9
			c0.1,0.1,0.1,0.2,0.1,0.3c0,0.2-0.2,0.5-0.5,0.5h-3.8c-0.3,0-0.6,0.1-0.8,0.4c-0.2,0.2-0.3,0.6-0.2,0.8c0.2,0.9,0.7,1.8,1.1,2.4
			c0.3,0.6,0.9,0.9,1.6,1.1c0.1,0,0.2,0.1,0.2,0.1c0,0,0.1,0.1,0,0.3c-0.1,0.2-0.2,0.5-0.3,0.8c0,0,0,0.1,0,0.1h-1.8
			c-1,0-1.9-0.6-2.6-1.6c-0.3-0.5-0.9-0.6-1.4-0.2c-0.5,0.3-0.6,0.9-0.2,1.4c1.1,1.6,2.6,2.4,4.2,2.4h2.1c0.3,0.4,0.7,0.7,1,1
			c0.3,0.2,0.5,0.4,0.7,0.7c2.2,2.3,5,4.1,8.1,5C30.5,41.2,27.3,42,24,42c0,0,0,0,0,0C13,42,4,33,4,22c0-5.3,2.1-10.4,5.9-14.1
			C13.7,4.1,18.7,2,24,2c4.1,0,8,1.2,11.4,3.5c0.5,0.3,1.1,0.2,1.4-0.3c0.3-0.5,0.2-1.1-0.3-1.4C32.9,1.3,28.5,0,24,0h0
			C18.2,0,12.6,2.3,8.5,6.4C4.3,10.6,2,16.1,2,22c0,12.1,9.9,22,22,22c0,0,0,0,0,0c4.5,0,8.8-1.3,12.5-3.9c0.3-0.2,0.5-0.6,0.4-1
			C36.9,38.7,36.6,38.4,36.2,38.3z"/>
		<path d="M7,26c0,2.2,1.8,4,4,4s4-1.8,4-4s-1.8-4-4-4S7,23.8,7,26z M11,24c1.1,0,2,0.9,2,2s-0.9,2-2,2s-2-0.9-2-2S9.9,24,11,24z"/>
		<path d="M41.9,12.5c-0.1-0.4-0.4-0.6-0.8-0.7l-2.9-0.4l-1.3-2.8C36.7,8.2,36.4,8,36,8s-0.7,0.2-0.9,0.6l-1.3,2.8l-2.9,0.4
			c-0.4,0.1-0.7,0.3-0.8,0.7s0,0.7,0.2,1l2.1,2.2l-0.5,3.1c-0.1,0.4,0.1,0.8,0.4,1c0.3,0.2,0.7,0.2,1.1,0.1l2.6-1.4l2.6,1.4
			c0.2,0.1,0.3,0.1,0.5,0.1c0.2,0,0.4-0.1,0.6-0.2c0.3-0.2,0.5-0.6,0.4-1l-0.5-3.1l2.1-2.2C42,13.2,42.1,12.9,41.9,12.5z M37.8,14.7
			c-0.2,0.2-0.3,0.5-0.3,0.9l0.3,1.6l-1.3-0.7c-0.2-0.1-0.3-0.1-0.5-0.1s-0.3,0-0.5,0.1l-1.3,0.7l0.3-1.6c0.1-0.3,0-0.6-0.3-0.9
			l-1.1-1.2l1.5-0.2c0.3-0.1,0.6-0.3,0.8-0.6l0.6-1.4l0.6,1.4c0.1,0.3,0.4,0.5,0.8,0.6l1.5,0.2L37.8,14.7z"/>
	</g>
</g>
<g id="windsock">
</g>
</svg>
